<mxfile host="app.diagrams.net" modified="2023-05-14T13:04:38.445Z" agent="Mozilla/5.0 (Windows NT 10.0; Win64; x64) AppleWebKit/537.36 (KHTML, like Gecko) Chrome/113.0.0.0 Safari/537.36" etag="75PolfBR-XbQ6JHO-8Vv" version="21.3.0" type="device">
  <diagram name="Страница 1" id="paXiJ-otFda8lDi2jAih">
    <mxGraphModel dx="2074" dy="1148" grid="1" gridSize="10" guides="1" tooltips="1" connect="1" arrows="1" fold="1" page="1" pageScale="1" pageWidth="827" pageHeight="1169" math="0" shadow="0">
      <root>
        <mxCell id="0" />
        <mxCell id="1" parent="0" />
        <mxCell id="fSt6KvquGN3f7vm3TrOr-3" style="edgeStyle=orthogonalEdgeStyle;rounded=0;orthogonalLoop=1;jettySize=auto;html=1;entryX=0.5;entryY=0;entryDx=0;entryDy=0;" edge="1" parent="1" source="fSt6KvquGN3f7vm3TrOr-1" target="fSt6KvquGN3f7vm3TrOr-2">
          <mxGeometry relative="1" as="geometry" />
        </mxCell>
        <mxCell id="fSt6KvquGN3f7vm3TrOr-1" value="Начало&lt;br&gt;printTree" style="ellipse;whiteSpace=wrap;html=1;" vertex="1" parent="1">
          <mxGeometry x="354" y="20" width="120" height="80" as="geometry" />
        </mxCell>
        <mxCell id="fSt6KvquGN3f7vm3TrOr-5" style="edgeStyle=orthogonalEdgeStyle;rounded=0;orthogonalLoop=1;jettySize=auto;html=1;entryX=0.5;entryY=0;entryDx=0;entryDy=0;" edge="1" parent="1" source="fSt6KvquGN3f7vm3TrOr-2" target="fSt6KvquGN3f7vm3TrOr-4">
          <mxGeometry relative="1" as="geometry" />
        </mxCell>
        <mxCell id="fSt6KvquGN3f7vm3TrOr-22" value="FALSE" style="edgeStyle=orthogonalEdgeStyle;rounded=0;orthogonalLoop=1;jettySize=auto;html=1;" edge="1" parent="1" source="fSt6KvquGN3f7vm3TrOr-2">
          <mxGeometry x="-0.8041" relative="1" as="geometry">
            <mxPoint x="410" y="700" as="targetPoint" />
            <Array as="points">
              <mxPoint x="601" y="160" />
            </Array>
            <mxPoint as="offset" />
          </mxGeometry>
        </mxCell>
        <mxCell id="fSt6KvquGN3f7vm3TrOr-2" value="node" style="rhombus;whiteSpace=wrap;html=1;" vertex="1" parent="1">
          <mxGeometry x="374" y="120" width="80" height="80" as="geometry" />
        </mxCell>
        <mxCell id="fSt6KvquGN3f7vm3TrOr-7" style="edgeStyle=orthogonalEdgeStyle;rounded=0;orthogonalLoop=1;jettySize=auto;html=1;" edge="1" parent="1" source="fSt6KvquGN3f7vm3TrOr-4" target="fSt6KvquGN3f7vm3TrOr-6">
          <mxGeometry relative="1" as="geometry" />
        </mxCell>
        <mxCell id="fSt6KvquGN3f7vm3TrOr-4" value="otstup+=3" style="rounded=0;whiteSpace=wrap;html=1;" vertex="1" parent="1">
          <mxGeometry x="354" y="220" width="120" height="60" as="geometry" />
        </mxCell>
        <mxCell id="fSt6KvquGN3f7vm3TrOr-9" style="edgeStyle=orthogonalEdgeStyle;rounded=0;orthogonalLoop=1;jettySize=auto;html=1;entryX=0.5;entryY=0;entryDx=0;entryDy=0;" edge="1" parent="1" source="fSt6KvquGN3f7vm3TrOr-6" target="fSt6KvquGN3f7vm3TrOr-8">
          <mxGeometry relative="1" as="geometry" />
        </mxCell>
        <mxCell id="fSt6KvquGN3f7vm3TrOr-6" value="&lt;div style=&quot;font-size: 14px; line-height: 19px;&quot;&gt;&lt;span style=&quot;background-color: rgb(255, 255, 255);&quot;&gt;printTree(node-&amp;gt;right, otstup)&lt;/span&gt;&lt;/div&gt;" style="rounded=0;whiteSpace=wrap;html=1;" vertex="1" parent="1">
          <mxGeometry x="354" y="300" width="120" height="60" as="geometry" />
        </mxCell>
        <mxCell id="fSt6KvquGN3f7vm3TrOr-11" style="edgeStyle=orthogonalEdgeStyle;rounded=0;orthogonalLoop=1;jettySize=auto;html=1;entryX=0.5;entryY=0;entryDx=0;entryDy=0;" edge="1" parent="1" source="fSt6KvquGN3f7vm3TrOr-8" target="fSt6KvquGN3f7vm3TrOr-10">
          <mxGeometry relative="1" as="geometry">
            <Array as="points">
              <mxPoint x="294" y="395" />
            </Array>
          </mxGeometry>
        </mxCell>
        <mxCell id="fSt6KvquGN3f7vm3TrOr-17" style="edgeStyle=orthogonalEdgeStyle;rounded=0;orthogonalLoop=1;jettySize=auto;html=1;entryX=0.5;entryY=0;entryDx=0;entryDy=0;" edge="1" parent="1" source="fSt6KvquGN3f7vm3TrOr-8" target="fSt6KvquGN3f7vm3TrOr-14">
          <mxGeometry relative="1" as="geometry">
            <Array as="points">
              <mxPoint x="514" y="395" />
              <mxPoint x="514" y="510" />
              <mxPoint x="414" y="510" />
            </Array>
          </mxGeometry>
        </mxCell>
        <mxCell id="fSt6KvquGN3f7vm3TrOr-8" value="&lt;div style=&quot;font-size: 14px; line-height: 19px;&quot;&gt;&lt;span style=&quot;background-color: rgb(255, 255, 255);&quot;&gt;i=0; i &amp;lt; otstup; i++&lt;/span&gt;&lt;/div&gt;" style="shape=hexagon;perimeter=hexagonPerimeter2;whiteSpace=wrap;html=1;fixedSize=1;" vertex="1" parent="1">
          <mxGeometry x="334" y="380" width="160" height="30" as="geometry" />
        </mxCell>
        <mxCell id="fSt6KvquGN3f7vm3TrOr-12" style="edgeStyle=orthogonalEdgeStyle;rounded=0;orthogonalLoop=1;jettySize=auto;html=1;entryX=0.5;entryY=1;entryDx=0;entryDy=0;" edge="1" parent="1" source="fSt6KvquGN3f7vm3TrOr-10" target="fSt6KvquGN3f7vm3TrOr-8">
          <mxGeometry relative="1" as="geometry">
            <Array as="points">
              <mxPoint x="414" y="460" />
            </Array>
          </mxGeometry>
        </mxCell>
        <mxCell id="fSt6KvquGN3f7vm3TrOr-10" value="&lt;div style=&quot;font-size: 14px; line-height: 19px;&quot;&gt;&lt;span style=&quot;background-color: rgb(255, 255, 255);&quot;&gt;printf(&quot; &quot;)&lt;/span&gt;&lt;/div&gt;" style="rounded=0;whiteSpace=wrap;html=1;" vertex="1" parent="1">
          <mxGeometry x="234" y="430" width="120" height="60" as="geometry" />
        </mxCell>
        <mxCell id="fSt6KvquGN3f7vm3TrOr-19" style="edgeStyle=orthogonalEdgeStyle;rounded=0;orthogonalLoop=1;jettySize=auto;html=1;" edge="1" parent="1" source="fSt6KvquGN3f7vm3TrOr-14" target="fSt6KvquGN3f7vm3TrOr-18">
          <mxGeometry relative="1" as="geometry" />
        </mxCell>
        <mxCell id="fSt6KvquGN3f7vm3TrOr-14" value="&lt;div style=&quot;font-size: 14px; line-height: 19px;&quot;&gt;&lt;span style=&quot;background-color: rgb(255, 255, 255);&quot;&gt;node-&amp;gt;train.number&lt;/span&gt;&lt;/div&gt;" style="shape=parallelogram;perimeter=parallelogramPerimeter;whiteSpace=wrap;html=1;fixedSize=1;" vertex="1" parent="1">
          <mxGeometry x="354" y="540" width="120" height="60" as="geometry" />
        </mxCell>
        <mxCell id="fSt6KvquGN3f7vm3TrOr-21" style="edgeStyle=orthogonalEdgeStyle;rounded=0;orthogonalLoop=1;jettySize=auto;html=1;entryX=0.5;entryY=0;entryDx=0;entryDy=0;" edge="1" parent="1" source="fSt6KvquGN3f7vm3TrOr-18" target="fSt6KvquGN3f7vm3TrOr-20">
          <mxGeometry relative="1" as="geometry" />
        </mxCell>
        <mxCell id="fSt6KvquGN3f7vm3TrOr-18" value="&lt;div style=&quot;font-size: 14px; line-height: 19px;&quot;&gt;&lt;span style=&quot;background-color: rgb(255, 255, 255);&quot;&gt;printTree(node-&amp;gt;left,otstup)&lt;/span&gt;&lt;/div&gt;" style="rounded=0;whiteSpace=wrap;html=1;" vertex="1" parent="1">
          <mxGeometry x="354" y="620" width="120" height="60" as="geometry" />
        </mxCell>
        <mxCell id="fSt6KvquGN3f7vm3TrOr-20" value="Конец" style="ellipse;whiteSpace=wrap;html=1;" vertex="1" parent="1">
          <mxGeometry x="354" y="720" width="120" height="80" as="geometry" />
        </mxCell>
      </root>
    </mxGraphModel>
  </diagram>
</mxfile>
